<svg xmlns="http://www.w3.org/2000/svg" viewBox="0 0 512 512" fill="none">
  <!-- Hands nurturing plant -->
  <g fill="#C4A962">
    <!-- Plant -->
    <path d="M256 120c-15 0-25 12-25 27v80c0 15 10 27 25 27s25-12 25-27v-80c0-15-10-27-25-27z"/>
    <path d="M230 160c-12-8-28-10-42-5-14 5-25 16-30 30-5 14-3 30 5 42 8 12 22 19 36 19 6 0 12-1 18-4 20-8 30-30 22-50-3-7-6-13-9-17v-15z"/>
    <path d="M282 160c12-8 28-10 42-5 14 5 25 16 30 30 5 14 3 30-5 42-8 12-22 19-36 19-6 0-12-1-18-4-20-8-30-30-22-50 3-7 6-13 9-17v-15z"/>
    <path d="M256 110c0-8-7-15-15-15h-2c-8 1-14 8-13 16 1 8 8 14 16 13h1c8-1 14-7 13-14z"/>

    <!-- Left hand -->
    <path d="M140 320c-10-5-22-2-28 8l-40 65c-6 10-3 23 7 29 3 2 7 3 11 3 7 0 14-4 18-10l40-65c6-10 3-23-8-30z"/>
    <path d="M160 310c-8-8-20-8-28 0-8 8-8 20 0 28l35 35c4 4 9 6 14 6s10-2 14-6c8-8 8-20 0-28l-35-35z"/>
    <path d="M185 295c-6-10-19-13-29-7-10 6-13 19-7 29l30 50c4 6 11 10 18 10 3 0 7-1 10-3 10-6 13-19 7-29l-29-50z"/>
    <path d="M210 285c-4-11-16-16-27-12-11 4-16 16-12 27l20 55c3 8 11 13 19 13 2 0 5 0 8-1 11-4 16-16 12-27l-20-55z"/>

    <!-- Right hand -->
    <path d="M372 320c10-5 22-2 28 8l40 65c6 10 3 23-7 29-3 2-7 3-11 3-7 0-14-4-18-10l-40-65c-6-10-3-23 8-30z"/>
    <path d="M352 310c8-8 20-8 28 0 8 8 8 20 0 28l-35 35c-4 4-9 6-14 6s-10-2-14-6c-8-8-8-20 0-28l35-35z"/>
    <path d="M327 295c6-10 19-13 29-7 10 6 13 19 7 29l-30 50c-4 6-11 10-18 10-3 0-7-1-10-3-10-6-13-19-7-29l29-50z"/>
    <path d="M302 285c4-11 16-16 27-12 11 4 16 16 12 27l-20 55c-3 8-11 13-19 13-2 0-5 0-8-1-11-4-16-16-12-27l20-55z"/>
  </g>
</svg>
