<svg xmlns="http://www.w3.org/2000/svg" viewBox="0 0 512 512" fill="none">
  <!-- Head with brain/leaf -->
  <g fill="#C4A962">
    <!-- Head outline -->
    <path d="M256 80c-70 0-130 50-145 115-3 15-5 30-5 45 0 80 65 145 145 145s145-65 145-145c0-15-2-30-5-45-15-65-75-115-145-115zm0 275c-63 0-115-52-115-115 0-12 2-24 4-36 12-52 58-94 111-94s99 42 111 94c2 12 4 24 4 36 0 63-52 115-115 115z"/>

    <!-- Neck -->
    <path d="M230 370c-8 0-15 7-15 15v45c0 8 7 15 15 15h52c8 0 15-7 15-15v-45c0-8-7-15-15-15h-52z"/>

    <!-- Brain/leaf inside head -->
    <path d="M256 150c-8 0-15 7-15 15v55c0 8 7 15 15 15s15-7 15-15v-55c0-8-7-15-15-15z"/>
    <path d="M235 180c-10-7-24-8-36-3-12 5-21 15-25 27-4 12-2 25 5 36 7 10 18 16 31 16 5 0 10-1 15-3 17-7 26-26 19-43-2-6-5-11-7-15l-2-15z"/>
    <path d="M277 180c10-7 24-8 36-3 12 5 21 15 25 27 4 12 2 25-5 36-7 10-18 16-31 16-5 0-10-1-15-3-17-7-26-26-19-43 2-6 5-11 7-15l2-15z"/>

    <!-- Thought bubbles -->
    <circle cx="360" cy="160" r="20"/>
    <circle cx="390" cy="140" r="12"/>
    <circle cx="410" cy="120" r="8"/>
  </g>
</svg>
