<svg xmlns="http://www.w3.org/2000/svg" viewBox="0 0 512 512" fill="none">
  <!-- Leaf for biophilic / nature-based design -->
  <g fill="#C4A962">
    <!-- Leaf body -->
    <path d="M256 72c-60 32-136 100-136 196 0 60 30 110 72 142 0-32 8-70 28-104 12-20 28-38 36-56 8 18 24 36 36 56 20 34 28 72 28 104 42-32 72-82 72-142 0-96-76-164-136-196z"/>
    <!-- Stem -->
    <rect x="244" y="392" width="24" height="64" rx="12"/>
    <!-- Center vein -->
    <rect x="249" y="220" width="14" height="160" rx="7" fill="#082A19" opacity="0.2"/>
  </g>
</svg>
