<svg xmlns="http://www.w3.org/2000/svg" viewBox="0 0 512 512" fill="none">
  <!-- Magnifying glass for research-backed -->
  <g fill="#C4A962">
    <!-- Outer lens ring -->
    <path fill-rule="evenodd" d="M220 72c-81.88 0-148 66.12-148 148s66.12 148 148 148 148-66.12 148-148S301.88 72 220 72zm0 264c-63.95 0-116-52.05-116-116S156.05 104 220 104s116 52.05 116 116-52.05 116-116 116z"/>
    <!-- Inner detail ring -->
    <path fill-rule="evenodd" d="M220 130c-49.71 0-90 40.29-90 90s40.29 90 90 90 90-40.29 90-90-40.29-90-90-90zm0 148c-31.98 0-58-26.02-58-58s26.02-58 58-58 58 26.02 58 58-26.02 58-58 58z"/>
    <!-- Handle -->
    <rect x="318" y="330" width="116" height="36" rx="18" transform="rotate(45 376 348)"/>
  </g>
</svg>
