<svg xmlns="http://www.w3.org/2000/svg" viewBox="0 0 512 512" fill="none">
  <!-- Target/bullseye for dual-purpose pedagogy -->
  <g fill="#C4A962">
    <!-- Outer ring -->
    <path fill-rule="evenodd" d="M256 64C149.96 64 64 149.96 64 256s85.96 192 192 192 192-85.96 192-192S362.04 64 256 64zm0 352c-88.22 0-160-71.78-160-160S167.78 96 256 96s160 71.78 160 160-71.78 160-160 160z"/>
    <!-- Middle ring -->
    <path fill-rule="evenodd" d="M256 150c-58.44 0-106 47.56-106 106s47.56 106 106 106 106-47.56 106-106-47.56-106-106-106zm0 180c-40.87 0-74-33.13-74-74s33.13-74 74-74 74 33.13 74 74-33.13 74-74 74z"/>
    <!-- Center dot -->
    <circle cx="256" cy="256" r="38"/>
  </g>
</svg>
