<svg xmlns="http://www.w3.org/2000/svg" viewBox="0 0 512 512" fill="none">
  <!-- Tree with roots - for Root/Foundation -->
  <g fill="#C4A962">
    <!-- Leaves -->
    <path d="M180 140c-20-30-40-60-50-80-10 20-30 50-50 80-15 23-5 45 15 60 20 15 50 20 70 10 20-10 30-40 15-70z"/>
    <path d="M380 140c20-30 40-60 50-80 10 20 30 50 50 80 15 23 5 45-15 60-20 15-50 20-70 10-20-10-30-40-15-70z"/>
    <path d="M150 220c-25-35-45-65-50-90-8 25-25 60-50 90-18 28-8 55 12 70 20 15 55 22 80 12 25-10 35-50 8-82z"/>
    <path d="M410 220c25-35 45-65 50-90 8 25 25 60 50 90 18 28 8 55-12 70-20 15-55 22-80 12-25-10-35-50-8-82z"/>

    <!-- Trunk -->
    <path d="M236 200c-8 0-15 7-15 15v150c0 8 7 15 15 15h40c8 0 15-7 15-15V215c0-8-7-15-15-15h-40z"/>

    <!-- Roots -->
    <path d="M256 365c-3 0-6 2-7 5-5 15-15 35-30 50-20 20-45 35-70 45-8 3-12 12-9 20 3 8 12 12 20 9 28-11 55-28 78-50 18-17 30-40 36-58 2-8-3-17-11-19-2-1-5-2-7-2z"/>
    <path d="M256 365c3 0 6 2 7 5 5 15 15 35 30 50 20 20 45 35 70 45 8 3 12 12 9 20-3 8-12 12-20 9-28-11-55-28-78-50-18-17-30-40-36-58-2-8 3-17 11-19 2-1 5-2 7-2z"/>
    <path d="M180 380c-20 15-45 25-70 30-8 2-14 10-12 18 2 8 10 14 18 12 28-6 56-17 80-35 7-5 8-15 3-22-5-7-15-8-22-3h3z"/>
    <path d="M332 380c20 15 45 25 70 30 8 2 14 10 12 18-2 8-10 14-18 12-28-6-56-17-80-35-7-5-8-15-3-22 5-7 15-8 22-3h-3z"/>
    <path d="M220 400c-25 25-55 45-90 55-8 3-13 11-10 19 3 8 11 13 19 10 38-11 72-33 100-62 6-6 6-16 0-22-6-6-16-6-22 0h3z"/>
    <path d="M292 400c25 25 55 45 90 55 8 3 13 11 10 19-3 8-11 13-19 10-38-11-72-33-100-62-6-6-6-16 0-22 6-6 16-6 22 0h-3z"/>
  </g>
</svg>
