<svg xmlns="http://www.w3.org/2000/svg" viewBox="0 0 512 512" fill="none">
  <!-- Simple tree with roots -->
  <g fill="#C4A962">
    <!-- Leaves -->
    <path d="M200 140c-18-28-35-55-42-75-8 20-25 47-42 75-12 20-5 42 12 55 17 13 45 18 62 10 17-8 25-35 10-65z"/>
    <path d="M256 100c0-25-15-50-20-65-5 15-20 40-20 65 0 18 9 33 20 33s20-15 20-33z"/>
    <path d="M312 140c18-28 35-55 42-75 8 20 25 47 42 75 12 20 5 42-12 55-17 13-45 18-62 10-17-8-25-35-10-65z"/>

    <!-- Trunk -->
    <path d="M241 170c-5 0-10 5-10 10v130c0 5 5 10 10 10h30c5 0 10-5 10-10V180c0-5-5-10-10-10h-30z"/>

    <!-- Roots -->
    <path d="M256 310c-2 0-4 1-5 3-8 20-25 45-50 65-25 20-55 35-85 45-6 2-10 9-7 15s9 10 15 7c32-11 65-27 93-50 22-18 38-42 45-68 2-6-2-13-8-15-1-1-2-2-3-2z"/>
    <path d="M256 310c2 0 4 1 5 3 8 20 25 45 50 65 25 20 55 35 85 45 6 2 10 9 7 15s-9 10-15 7c-32-11-65-27-93-50-22-18-38-42-45-68-2-6 2-13 8-15 1-1 2-2 3-2z"/>
    <path d="M210 335c-20 18-45 30-75 38-6 2-11 8-9 14 2 6 8 11 14 9 33-9 60-23 83-43 5-4 6-12 2-17-4-5-12-6-17-2l2 1z"/>
    <path d="M302 335c20 18 45 30 75 38 6 2 11 8 9 14-2 6-8 11-14 9-33-9-60-23-83-43-5-4-6-12-2-17 4-5 12-6 17-2l-2 1z"/>
    <path d="M230 360c-22 25-50 45-83 58-6 3-10 10-8 16 3 6 10 10 16 8 36-14 66-37 91-65 5-5 5-13 0-18-5-5-13-5-18 0l2 1z"/>
    <path d="M282 360c22 25 50 45 83 58 6 3 10 10 8 16-3 6-10 10-16 8-36-14-66-37-91-65-5-5-5-13 0-18 5-5 13-5 18 0l-2 1z"/>
  </g>
</svg>
